<svg width="24" height="21" viewBox="0 0 24 21" fill="none" xmlns="http://www.w3.org/2000/svg">
<path d="M2.50014 9.05838C8.48353 6.27648 12.4724 4.44231 14.4669 3.55619C20.1681 1.02586 21.3512 0.586395 22.124 0.571678C22.294 0.568598 22.6723 0.613433 22.9192 0.826662C23.1245 1.00635 23.1822 1.24935 23.2111 1.4198C23.2367 1.59025 23.272 1.97871 23.2432 2.28196C22.9353 5.74564 21.5982 14.1509 20.9184 18.0304C20.6331 19.672 20.0655 20.2223 19.5172 20.2761C18.3243 20.3931 17.42 19.4355 16.2657 18.628C14.4604 17.364 13.4408 16.5775 11.6868 15.3443C9.6603 13.9192 10.9749 13.1357 12.1293 11.8557C12.4307 11.5206 17.683 6.42263 17.7824 5.96023C17.7952 5.90239 17.8081 5.68677 17.6862 5.57314C17.5676 5.45916 17.3911 5.49818 17.2629 5.52898C17.0801 5.57279 14.1974 7.60856 8.60524 11.6359C7.78757 12.2363 7.04688 12.5289 6.37992 12.5135C5.64883 12.4967 4.23805 12.0713 3.18952 11.7078C1.9069 11.2619 0.883969 11.026 0.973752 10.2686C1.01864 9.87433 1.52856 9.4708 2.50014 9.05838Z" fill="#2AABEE"/>
</svg>
